Land_normalized_Motion_pl06
version=1
nRows=20
nColumns=43
inDegrees=yes
endheader
time		pelvis_tilt		pelvis_list		pelvis_rotation		pelvis_tx		pelvis_ty		pelvis_tz		hip_flexion_r		hip_adduction_r		hip_rotation_r		knee_angle_r		ankle_angle_r		subtalar_angle_r		mtp_angle_r		hip_flexion_l		hip_adduction_l		hip_rotation_l		knee_angle_l		ankle_angle_l		subtalar_angle_l		mtp_angle_l		lumbar_extension		lumbar_bending		lumbar_rotation		neck_flexion		neck_lateral_bending		neck_rotation		arm_flex_r		arm_add_r		arm_rot_r		elbow_flex_r		pro_sup_r		wrist_flex_r		wrist_dev_r		hand_finger_flex_r		arm_flex_l		arm_add_l		arm_rot_l		elbow_flex_l		pro_sup_l		wrist_flex_l		wrist_dev_l		hand_finger_flex_l		
0.967500		3.737528		-1.022664		90.654115		-0.001685		0.988646		0.614084		40.800503		-6.722374		-16.727494		-30.226939		-22.890562		0.998726		15.248519		43.218696		-10.389818		-8.772955		-35.202796		-19.223615		-8.193248		0.081700		-28.312074		1.920399		4.303570		-28.864584		-0.597160		0.178692		-73.988021		0.062477		-66.437157		36.230349		98.812771		-18.518478		-6.693933		30.506364		-79.137610		-7.732233		-54.337778		22.181621		106.076190		-38.440541		-0.214113		79.086073		
0.970227		3.717505		-0.690168		90.664977		-0.001758		0.978152		0.609619		41.006384		-6.834902		-16.668231		-31.415035		-22.904353		1.029073		15.289819		43.520969		-10.410576		-8.652534		-36.573344		-19.314799		-8.081143		0.162628		-28.848239		1.871045		4.266200		-28.720798		-0.530341		0.369491		-73.197558		0.101364		-66.596736		35.044313		98.651973		-18.610640		-6.321219		30.535348		-78.454163		-7.183615		-53.750145		21.548349		106.183945		-38.192409		-0.131773		79.234519		
0.972955		3.674151		-0.323205		90.650769		-0.001938		0.967654		0.605197		41.202353		-6.981926		-16.629505		-32.663713		-22.961639		1.187958		15.347168		43.800202		-10.416098		-8.540628		-37.971436		-19.413793		-7.800371		0.270714		-29.452361		1.786359		4.236137		-28.457127		-0.346758		0.476223		-72.377539		0.070576		-66.641619		33.883890		98.542996		-18.654922		-6.090943		30.626352		-77.688825		-6.682556		-53.122116		20.925440		106.222817		-37.843429		-0.023811		79.394466		
0.975682		3.625283		0.072601		90.627802		-0.002047		0.957184		0.600812		41.379374		-7.132081		-16.613518		-33.943394		-23.084682		1.364517		15.401656		44.052699		-10.426016		-8.449881		-39.373603		-19.562939		-7.489546		0.367249		-30.099517		1.689085		4.201239		-28.255053		-0.221158		0.550144		-71.566822		0.045964		-66.577018		32.877286		98.481931		-18.675272		-5.947644		30.718697		-76.909004		-6.176654		-52.548072		20.458988		106.240972		-37.511276		0.062609		79.529708		
0.978409		3.558714		0.480432		90.581458		-0.002223		0.946667		0.596454		41.553689		-7.303732		-16.621382		-35.240527		-23.257513		1.517936		15.449789		44.307454		-10.416995		-8.334414		-40.790642		-19.737650		-7.174635		0.443001		-30.771395		1.576800		4.177890		-28.012529		-0.122185		0.591351		-70.754487		-0.003391		-66.422945		31.990886		98.460731		-18.694216		-5.838702		30.782947		-76.083422		-5.683943		-52.016006		20.102588		106.292009		-37.212951		0.126511		79.642316		
0.981136		3.441710		1.133059		90.594826		-0.002455		0.936585		0.592320		41.491735		-7.567145		-16.605885		-36.614737		-23.350602		1.978173		16.074790		44.236662		-10.352397		-8.271151		-42.062988		-19.748088		-6.397995		1.331418		-31.845422		1.413175		4.180327		-27.173094		0.151702		0.688929		-69.762969		-0.250331		-65.488366		30.551700		97.516217		-19.257808		-6.323303		31.556792		-75.171131		-5.542408		-50.163841		19.557957		104.885192		-36.742475		-0.123398		79.662957		
0.983864		3.346094		1.845629		90.546599		-0.002594		0.926622		0.587933		41.336773		-7.770279		-16.592229		-37.951934		-23.482673		2.335285		16.760838		44.116002		-10.357894		-8.263518		-43.409688		-19.783637		-5.838314		2.295791		-32.897608		1.262336		4.157585		-26.897065		0.283457		0.747693		-68.968066		-0.388203		-64.444539		29.716025		96.421299		-19.894008		-6.942550		32.386779		-74.345139		-5.270503		-48.376493		19.262155		103.191044		-36.474065		-0.469451		79.590943		
0.986591		3.292311		2.155795		90.586818		-0.002944		0.915640		0.583940		41.724469		-8.006259		-16.621694		-39.473203		-23.530400		2.352519		16.829966		44.523273		-10.265083		-8.065618		-44.782868		-19.596681		-5.572387		2.384459		-33.558135		1.224229		4.119792		-26.250878		0.282467		0.805930		-68.063298		-0.492775		-64.026294		29.041741		96.536545		-19.941911		-6.770633		32.358115		-73.373142		-4.924494		-47.789802		19.159440		103.425401		-36.283261		-0.491256		79.715727		
0.989318		3.243513		2.511966		90.596114		-0.003232		0.904806		0.579848		42.050238		-8.210672		-16.610718		-40.971266		-23.533192		2.383187		16.894344		44.891439		-10.195016		-7.856667		-46.204310		-19.374287		-5.350004		2.460286		-34.235350		1.171939		4.118193		-25.908992		0.323260		0.834462		-67.197485		-0.523016		-63.632048		28.626735		96.623444		-19.978783		-6.701713		32.325670		-72.384484		-4.593490		-47.311830		19.160521		103.595973		-36.118123		-0.526797		79.809419		
0.992045		3.112033		2.873027		90.739133		-0.003701		0.893689		0.575755		42.428231		-8.593106		-16.575916		-42.721327		-22.615130		2.819262		17.205173		45.234463		-9.979571		-7.573100		-47.693014		-17.862625		-4.139958		2.689440		-34.950901		1.085988		4.014638		-25.201346		0.520844		0.903997		-66.388859		-0.662159		-62.374252		28.060059		96.532473		-20.319190		-7.123288		32.072060		-71.438177		-4.435958		-46.271650		19.187198		103.756385		-35.748101		-0.839875		79.996877		
0.994773		3.058338		3.319355		90.656658		-0.003928		0.882786		0.571854		42.741609		-8.773840		-16.426749		-44.434343		-21.697656		3.580062		17.770233		45.474782		-9.961131		-7.338621		-49.251199		-16.082832		-3.006452		2.400145		-35.832485		0.974064		4.127875		-24.274259		0.630982		0.954952		-65.670654		-0.951364		-59.937444		27.548017		93.950718		-21.146841		-7.913356		31.469146		-70.360453		-4.298402		-44.905228		19.155695		102.530171		-35.696056		-1.463601		80.091158		
0.997500		3.012131		3.632902		90.676821		-0.004305		0.871560		0.567992		43.213417		-8.982051		-16.401570		-46.241600		-20.435155		3.368833		17.981158		45.920430		-9.835140		-7.157037		-50.900790		-14.302694		-3.181311		2.492694		-36.539364		0.966222		4.236793		-23.497579		0.587059		0.948205		-64.858702		-0.914818		-59.174864		27.524873		93.783508		-21.297206		-8.046102		31.388058		-69.259697		-4.143550		-44.360612		19.438633		102.520378		-35.637262		-1.607246		80.147106		
1.000227		2.919607		3.896840		90.619443		-0.004335		0.860128		0.563898		43.796344		-9.177960		-16.100018		-48.243835		-18.197918		4.431130		17.923817		46.364116		-9.781594		-6.933446		-52.693848		-11.231667		-1.877587		1.290055		-37.143840		0.809122		4.294004		-22.928996		0.651226		0.946439		-64.182418		-1.103556		-56.940110		27.497513		91.899484		-22.156139		-8.768181		30.927448		-68.231695		-4.056900		-43.076181		19.619830		101.578979		-35.629083		-2.120477		80.177454		
1.002955		2.812415		4.114770		90.621836		-0.004721		0.848643		0.559929		44.429548		-9.445666		-15.942618		-50.325550		-15.516019		4.926884		17.628453		46.899423		-9.656743		-6.822742		-54.614481		-7.974063		-1.165402		0.218303		-37.726881		0.737237		4.363081		-22.199241		0.605515		0.882884		-63.468614		-1.199332		-55.351922		27.637773		91.010192		-22.729822		-9.294359		30.682963		-67.121569		-4.019360		-42.013502		19.913060		101.123795		-35.611179		-2.495575		80.223368		
1.005682		2.731685		4.308875		90.557440		-0.004926		0.837066		0.556003		45.144597		-9.630527		-15.688840		-52.548117		-12.389200		5.498378		16.761560		47.424416		-9.559464		-6.675259		-56.552705		-4.251001		-0.629255		-1.566323		-38.292815		0.634349		4.526454		-21.476365		0.571971		0.868578		-62.744776		-1.307873		-53.609817		27.892264		89.742414		-23.367174		-9.913812		30.389173		-65.982595		-4.037232		-40.898088		20.243809		100.336046		-35.642739		-2.945719		80.243317		
1.008409		2.671749		4.481810		90.534823		-0.005137		0.825504		0.552066		45.872706		-9.808407		-15.531942		-54.827222		-8.911645		5.671340		16.045484		48.020375		-9.492756		-6.645144		-58.627909		-0.500928		-0.433676		-2.815012		-38.821603		0.577620		4.625365		-20.784314		0.502645		0.799792		-61.975968		-1.411275		-52.303068		28.300146		89.104178		-23.819179		-10.449615		30.201591		-64.820513		-4.029383		-39.959333		20.637078		99.882233		-35.647277		-3.287602		80.285463		
1.011136		2.579801		4.588397		90.463613		-0.005220		0.813757		0.548104		46.724162		-9.957714		-15.311645		-57.208536		-4.944852		5.821880		13.143264		48.671374		-9.429584		-6.721191		-60.757666		3.614108		-0.583896		-6.331024		-39.279100		0.461357		4.761946		-20.104542		0.435895		0.843285		-61.268218		-1.612339		-50.335623		28.717285		87.343030		-24.476957		-11.265095		29.931573		-63.653687		-4.135539		-38.458313		21.027240		98.379794		-35.832091		-3.897134		80.335586		
1.013864		2.468476		4.616705		90.428209		-0.005360		0.801908		0.544323		47.696773		-10.202079		-15.159311		-59.671817		-0.868119		6.170216		9.622820		49.430313		-9.357313		-6.797261		-62.947705		7.931031		-0.378577		-10.413126		-39.697531		0.348722		4.902745		-19.215483		0.378868		0.795486		-60.485047		-1.872087		-48.283605		29.071730		85.579816		-25.232425		-12.159773		29.715422		-62.410246		-4.374778		-36.735224		21.352616		96.786304		-36.056142		-4.515966		80.444005		
1.016591		2.402394		4.467444		90.375866		-0.005436		0.789762		0.540597		48.908832		-10.334943		-14.896802		-62.176972		3.240450		6.244910		5.650037		50.441769		-9.274034		-6.730939		-65.171788		11.901559		-0.431524		-13.571263		-39.899963		0.280748		5.059975		-18.444936		0.227392		0.778985		-59.563805		-1.963378		-47.559972		29.621107		85.672641		-25.691243		-12.724927		30.030568		-61.115119		-4.550946		-35.539220		21.747186		95.812507		-36.277023		-4.992556		80.782806		
1.019318		2.372895		4.471991		90.404711		-0.005534		0.778183		0.537122		49.900634		-10.479779		-14.773887		-64.541960		6.766965		5.759997		3.546951		51.333052		-9.202119		-6.738560		-67.377063		15.348171		-0.983817		-15.177454		-40.354146		0.258505		5.135634		-17.364312		0.188906		0.687724		-58.489957		-2.132702		-46.919131		30.196433		85.769708		-25.898230		-13.115779		30.196971		-59.691320		-4.684843		-34.709482		22.168271		95.329153		-36.358537		-5.297322		80.980293		
